<svg width="24" height="24" viewBox="0 0 24 24" fill="none" xmlns="http://www.w3.org/2000/svg">
<path fill-rule="evenodd" clip-rule="evenodd" d="M20 5L6 4C5.9 4 5.7 4 5.6 4.1C5.3 3.6 5 3.1 4.7 2.8C4.1 2.2 3.2 2 2 2V4C2.8 4 3.2 4.1 3.3 4.2C3.7 4.6 4 5.4 4 6V6.1L5 13C3.4 13.1 2.1 14.4 2 15.9V16.9C2.1 18.5 3.4 19.8 4.9 19.9H5.1C5.5 21.1 6.6 21.9 7.9 21.9C9.2 21.9 10.3 21.1 10.7 19.9H13C13.4 21.1 14.5 21.9 15.8 21.9C17.5 21.9 18.8 20.6 18.8 18.9C18.8 17.2 17.5 15.9 15.8 15.9C14.5 15.9 13.4 16.7 13 17.9H10.7C10.3 16.7 9.2 15.9 7.9 15.9C6.6 15.9 5.5 16.7 5.1 17.9H5C4.5 17.9 4 17.4 4 16.8V16C4 15.5 4.5 15 5 15H7H17.1H17.2C18 14.8 18.6 14.2 18.9 13.4L19.3 12.5C19.7 11.8 20 11.1 20.4 10.4C21.2 8.7 21.8 7.6 21.9 7.4C22.5 6.1 21.3 5 20 5ZM16 18C16.6 18 17 18.4 17 19C17 19.6 16.6 20 16 20C15.4 20 15 19.6 15 19C15 18.4 15.4 18 16 18ZM8 18C8.6 18 9 18.4 9 19C9 19.6 8.6 20 8 20C7.4 20 7 19.6 7 19C7 18.4 7.4 18 8 18ZM18.6 9.5C18.3 10.2 17.9 10.9 17.5 11.6L17 12.5V12.6C16.9 12.7 16.8 12.9 16.7 12.9H7.1C7 13 7 12.9 7 12.9L6 6L19.9 7C19.7 7.5 19.2 8.4 18.6 9.5Z" fill="#829AB1"/>
</svg>
