<svg width="18" height="18" viewBox="0 0 18 18" fill="none" xmlns="http://www.w3.org/2000/svg">
<g clip-path="url(#clip0_71_196)">
<path d="M15.5744 0H2.42555C1.08598 0 0 1.08594 0 2.42555V15.5745C0 16.9141 1.08594 18 2.42555 18H8.9105L8.92155 11.5678H7.25046C7.03329 11.5678 6.85703 11.3922 6.85619 11.175L6.84818 9.10165C6.84734 8.88329 7.02413 8.70584 7.24249 8.70584H8.91055V6.70243C8.91055 4.37749 10.3305 3.11154 12.4045 3.11154H14.1063C14.3241 3.11154 14.5007 3.28807 14.5007 3.50586V5.25414C14.5007 5.47184 14.3242 5.64832 14.1066 5.64846L13.0621 5.64894C11.9342 5.64894 11.7158 6.18491 11.7158 6.97147V8.70588H14.1942C14.4304 8.70588 14.6136 8.91209 14.5858 9.14661L14.34 11.22C14.3165 11.4184 14.1483 11.5679 13.9485 11.5679H11.7269L11.7158 18.0001H15.5745C16.9141 18.0001 18 16.9142 18 15.5746V2.42555C18 1.08594 16.914 0 15.5744 0Z" fill="#475993"/>
</g>
<defs>
<clipPath id="clip0_71_196">
<rect width="18" height="18" fill="white"/>
</clipPath>
</defs>
</svg>
