<svg width="16" height="16" viewBox="0 0 16 16" fill="none" xmlns="http://www.w3.org/2000/svg">
<path fill-rule="evenodd" clip-rule="evenodd" d="M9.33334 3.99998C9.33334 4.1916 9.35355 4.37849 9.39196 4.55865L6.0113 6.24898C5.52243 5.6879 4.80263 5.33331 4.00001 5.33331C2.52725 5.33331 1.33334 6.52722 1.33334 7.99998C1.33334 9.47274 2.52725 10.6666 4.00001 10.6666C4.80263 10.6666 5.52243 10.3121 6.0113 9.75098L9.39196 11.4413C9.35355 11.6215 9.33334 11.8084 9.33334 12C9.33334 13.4727 10.5273 14.6666 12 14.6666C13.4728 14.6666 14.6667 13.4727 14.6667 12C14.6667 10.5272 13.4728 9.33331 12 9.33331C11.1974 9.33331 10.4776 9.68791 9.98872 10.249L6.60806 8.55865C6.64647 8.37849 6.66668 8.1916 6.66668 7.99998C6.66668 7.80836 6.64647 7.62147 6.60806 7.44131L9.98872 5.75098C10.4776 6.31206 11.1974 6.66665 12 6.66665C13.4728 6.66665 14.6667 5.47274 14.6667 3.99998C14.6667 2.52722 13.4728 1.33331 12 1.33331C10.5273 1.33331 9.33334 2.52722 9.33334 3.99998ZM5.33334 7.99998C5.33334 8.73636 4.73639 9.33331 4.00001 9.33331C3.26363 9.33331 2.66668 8.73636 2.66668 7.99998C2.66668 7.2636 3.26363 6.66665 4.00001 6.66665C4.73639 6.66665 5.33334 7.2636 5.33334 7.99998ZM12 5.33331C12.7364 5.33331 13.3333 4.73636 13.3333 3.99998C13.3333 3.2636 12.7364 2.66665 12 2.66665C11.2636 2.66665 10.6667 3.2636 10.6667 3.99998C10.6667 4.73636 11.2636 5.33331 12 5.33331ZM13.3333 12C13.3333 12.7364 12.7364 13.3333 12 13.3333C11.2636 13.3333 10.6667 12.7364 10.6667 12C10.6667 11.2636 11.2636 10.6666 12 10.6666C12.7364 10.6666 13.3333 11.2636 13.3333 12Z" fill="#E4F2FC"/>
</svg>
